<mxfile host="app.diagrams.net" modified="2023-12-18T14:15:29.909Z" agent="Mozilla/5.0 (Windows NT 10.0; Win64; x64) AppleWebKit/537.36 (KHTML, like Gecko) Chrome/120.0.0.0 Safari/537.36" version="22.1.11" etag="q-G5bAQPwPdNlUNbnp9-" type="github">
  <diagram name="PÃ¡gina-1" id="x4shJKS8O0b5rPqwoqjS">
    <mxGraphModel>
      <root>
        <mxCell id="0" />
        <mxCell id="1" parent="0" />
      </root>
    </mxGraphModel>
  </diagram>
</mxfile>
